<svg width="171" height="40" viewBox="0 0 171 40" fill="none" xmlns="http://www.w3.org/2000/svg">
<path d="M53.9282 13.5649C53.9282 13.0746 54.1694 12.8328 54.6517 12.8328H57.5122C57.9928 12.8328 58.2357 13.0746 58.2357 13.5649V28.6772C58.2357 29.7531 57.6825 30.6946 56.5761 31.5066C55.4883 32.3017 54.1339 32.7647 52.5098 32.9111V32.9384H51.7913C51.3056 32.9384 51.0694 32.7034 51.0694 32.237V30.7831C51.0694 30.3269 51.3056 30.1056 51.7913 30.1056C52.3782 30.1056 52.8825 29.9643 53.2991 29.6868C53.7174 29.4059 53.9282 29.0688 53.9282 28.6772V13.5649ZM57.5105 7.05993C57.9911 7.05993 58.234 7.30337 58.234 7.78686V9.24413C58.234 9.71059 57.9911 9.94893 57.5105 9.94893H54.65C54.1694 9.94893 53.9265 9.71229 53.9265 9.24413V7.78686C53.9265 7.30337 54.1677 7.05993 54.65 7.05993H57.5105Z" fill="#EA5504"/>
<path d="M78.5488 22.8992C78.5488 24.0858 77.918 25.109 76.6531 25.9755C75.3848 26.8233 73.8787 27.2438 72.1348 27.2438H67.1324C65.493 27.1025 64.1404 26.6207 63.0677 25.8121C61.9647 24.9677 61.4149 23.9956 61.4149 22.8975V17.1502C61.4149 15.9585 62.0457 14.9489 63.3072 14.1011C64.5755 13.2567 66.0934 12.8328 67.8542 12.8328H72.1331C73.877 12.8328 75.3831 13.2567 76.6514 14.1011C77.9163 14.9506 78.5471 15.9585 78.5471 17.1502V22.8992H78.5488ZM74.2767 17.1519C74.2767 16.7569 74.0659 16.4215 73.6459 16.144C73.2276 15.8614 72.725 15.7235 72.1364 15.7235H67.8576C67.2521 15.7235 66.7445 15.8614 66.3346 16.144C65.9248 16.4215 65.7207 16.7569 65.7207 17.1519V22.8992C65.7207 23.2993 65.9265 23.6347 66.3346 23.9241C66.7428 24.2135 67.2521 24.3599 67.8576 24.3599H72.1364C72.725 24.3599 73.2276 24.2135 73.6459 23.9241C74.0676 23.633 74.2767 23.2976 74.2767 22.8992V17.1519Z" fill="#EA5504"/>
<path d="M86.1434 26.5186C86.1434 27.0003 85.9022 27.2438 85.4233 27.2438H82.5628C82.0788 27.2438 81.8393 27.0003 81.8393 26.5186V7.78856C81.8393 7.30507 82.0788 7.06163 82.5628 7.06163H85.4233C85.9022 7.06163 86.1434 7.30507 86.1434 7.78856V26.5186Z" fill="#EA5504"/>
<path d="M93.6318 26.5186C93.6318 27.0003 93.3873 27.2438 92.9083 27.2438H90.0462C89.5655 27.2438 89.326 27.0003 89.326 26.5186V7.78856C89.326 7.30507 89.5655 7.06163 90.0462 7.06163H92.9066C93.3873 7.06163 93.6301 7.30507 93.6301 7.78856V26.5186H93.6318Z" fill="#EA5504"/>
<path d="M101.732 23.9241C102.142 24.2135 102.647 24.3565 103.252 24.3565H109.669V13.5632C109.669 13.0763 109.902 12.8328 110.366 12.8328H113.226C113.707 12.8328 113.95 13.0763 113.95 13.5632V28.6755C113.95 29.7549 113.395 30.7014 112.294 31.5083C111.203 32.3017 109.85 32.7664 108.227 32.9128V32.9367H100.393C99.9143 32.9367 99.6748 32.7051 99.6748 32.237V30.7814C99.6748 30.3286 99.9143 30.1038 100.393 30.1038H107.533C108.119 30.1038 108.624 29.966 109.044 29.6851C109.465 29.4076 109.673 29.0705 109.673 28.6755V28.6483C109.656 28.2533 109.437 27.9196 109.02 27.6507C108.598 27.3766 108.106 27.2421 107.534 27.2421H103.252C101.488 27.2421 99.975 26.8216 98.7118 25.9789C97.4435 25.1158 96.8093 24.0841 96.8093 22.906V13.5632C96.8093 13.0763 97.0539 12.8328 97.5329 12.8328H100.393C100.876 12.8328 101.117 13.0763 101.117 13.5632V22.9043C101.117 23.2959 101.321 23.6364 101.732 23.9241Z" fill="#EA5504"/>
<path d="M141.03 25.9755C139.766 26.8233 138.26 27.2438 136.513 27.2438H123.678C121.912 27.2438 120.398 26.8233 119.133 25.9755C117.87 25.1107 117.234 24.0841 117.234 22.9009V13.5649C117.234 13.078 117.477 12.8328 117.957 12.8328H120.818C121.298 12.8328 121.54 13.0763 121.54 13.5649V22.9009C121.54 23.2925 121.742 23.6364 122.153 23.9241C122.563 24.2135 123.073 24.3548 123.676 24.3548H125.842C126.414 24.3548 126.906 24.2152 127.324 23.9241C127.743 23.6364 127.954 23.2925 127.954 22.9009V13.5649C127.954 13.078 128.185 12.8328 128.648 12.8328H131.511C131.99 12.8328 132.231 13.0763 132.231 13.5649V22.9248C132.231 23.3248 132.442 23.6602 132.86 23.9326C133.278 24.2203 133.782 24.3531 134.371 24.3531H136.51C136.899 24.3531 137.355 24.2441 137.872 24.0313C138.392 23.7794 138.652 23.3997 138.652 22.8992V13.5649C138.652 13.078 138.891 12.8328 139.37 12.8328H142.207C142.686 12.8328 142.927 13.0763 142.927 13.5649V22.9009C142.929 24.0858 142.296 25.1107 141.03 25.9755Z" fill="#EA5504"/>
<path d="M149.96 7.05993C150.441 7.05993 150.68 7.30337 150.68 7.78686V9.24413C150.68 9.71059 150.441 9.94382 149.96 9.94382H147.096C146.617 9.94382 146.379 9.71229 146.379 9.24413V7.78686C146.379 7.30337 146.619 7.05993 147.096 7.05993H149.96ZM150.68 26.5186C150.68 27.0003 150.441 27.2438 149.96 27.2438H147.096C146.617 27.2438 146.379 27.0003 146.379 26.5186V13.5649C146.379 13.078 146.619 12.8328 147.096 12.8328H149.96C150.441 12.8328 150.68 13.0763 150.68 13.5649V26.5186Z" fill="#EA5504"/>
<path d="M169.342 20.0664C168.258 20.858 166.9 21.3279 165.281 21.4675H160.307V18.5836H164.584C165.173 18.5836 165.675 18.4457 166.095 18.1648C166.51 17.8873 166.723 17.5519 166.723 17.1502C166.723 16.7586 166.51 16.4198 166.095 16.1423C165.675 15.8631 165.173 15.7218 164.584 15.7218H154.588C154.102 15.7218 153.863 15.4784 153.863 14.9966V13.5683C153.863 13.0763 154.102 12.8328 154.588 12.8328H171V17.1502C171 18.2465 170.448 19.2203 169.342 20.0664ZM158.796 23.9377C159.214 24.2169 159.717 24.3582 160.307 24.3582H170.28C170.761 24.3582 171 24.5965 171 25.0562V26.5169C171 27.0037 170.761 27.2472 170.28 27.2472H153.863V22.9026C153.863 21.7126 154.495 20.6963 155.76 19.8519C157.027 19.0075 158.541 18.5836 160.307 18.5836V21.4675C159.702 21.4675 159.192 21.6088 158.781 21.888C158.371 22.1655 158.167 22.5043 158.167 22.9026V22.9299C158.169 23.3248 158.376 23.6636 158.796 23.9377Z" fill="#EA5504"/>
<path d="M19.8156 0C8.87138 0 0 8.95642 0 20C0 31.0453 8.87138 40 19.8156 40C30.758 40 39.6294 31.0453 39.6294 20C39.6294 8.95642 30.758 0 19.8156 0ZM14.1875 26.4675L7.45971 33.2584C7.11565 33.6057 6.834 33.4866 6.834 32.9963V26.7297C6.834 26.2377 7.23371 25.8376 7.71945 25.8376H13.9277C14.4151 25.8376 14.5298 26.1202 14.1875 26.4675ZM10.5023 24.4825C8.33167 24.4825 6.57089 22.7068 6.57089 20.5158C6.57089 18.3231 8.33167 16.5475 10.5023 16.5475C12.6729 16.5475 14.4337 18.3231 14.4337 20.5158C14.4337 22.7068 12.6729 24.4825 10.5023 24.4825ZM10.5023 15.3184C8.33167 15.3184 6.57089 13.5427 6.57089 11.3517C6.57089 9.15901 8.33167 7.38168 10.5023 7.38168C12.6729 7.38168 14.4337 9.15901 14.4337 11.3517C14.4337 13.5444 12.6729 15.3184 10.5023 15.3184ZM23.5176 32.603C23.5176 33.0712 23.1398 33.4542 22.6726 33.4542H16.8742C16.407 33.4542 16.0309 33.0712 16.0309 32.603V26.7467C16.0309 26.2785 16.4087 25.8955 16.8742 25.8955H22.6726C23.1398 25.8955 23.5176 26.2768 23.5176 26.7467V32.603ZM23.5176 23.4389C23.5176 23.9087 23.1398 24.2901 22.6726 24.2901H16.8742C16.407 24.2901 16.0309 23.9087 16.0309 23.4389V17.5843C16.0309 17.1161 16.4087 16.7331 16.8742 16.7331H22.6726C23.1398 16.7331 23.5176 17.1144 23.5176 17.5843V23.4389ZM23.5176 14.2765C23.5176 14.748 23.1398 15.1294 22.6726 15.1294H16.8742C16.407 15.1294 16.0309 14.748 16.0309 14.2765V8.42186C16.0309 8.17501 16.1405 7.94688 16.2687 7.82431L19.3332 4.73102C19.5744 4.48927 19.9673 4.48757 20.2068 4.73102L23.2393 7.79196C23.4096 7.94859 23.5176 8.1716 23.5176 8.42356V14.2765ZM32.8932 32.9963C32.8932 33.4866 32.6116 33.6057 32.2675 33.2584L25.5415 26.4675C25.1974 26.1202 25.3138 25.8376 25.7995 25.8376H32.0078C32.4935 25.8376 32.8916 26.2377 32.8916 26.7297V32.9963H32.8932ZM29.1271 24.4825C26.9565 24.4825 25.1957 22.7068 25.1957 20.5158C25.1957 18.3231 26.9565 16.5475 29.1271 16.5475C31.2994 16.5475 33.0602 18.3231 33.0602 20.5158C33.0602 22.7068 31.2994 24.4825 29.1271 24.4825ZM29.1271 15.3184C26.9565 15.3184 25.1957 13.5427 25.1957 11.3517C25.1957 9.15901 26.9565 7.38168 29.1271 7.38168C31.2994 7.38168 33.0602 9.15901 33.0602 11.3517C33.0602 13.5444 31.2994 15.3184 29.1271 15.3184Z" fill="#EA5504"/>
</svg>
